<?xml version="1.0" encoding="UTF-8" standalone="no" ?>
<!DOCTYPE svg PUBLIC "-//W3C//DTD SVG 1.1//EN" "http://www.w3.org/Graphics/SVG/1.1/DTD/svg11.dtd">
<svg xmlns="http://www.w3.org/2000/svg" xmlns:xlink="http://www.w3.org/1999/xlink" version="1.1" width="400" height="400" viewBox="0 0 400 400" xml:space="preserve">
<desc>Created with Fabric.js 3.6.2</desc>
<defs>
</defs>
<g transform="matrix(3.33 0 0 3.33 200 200)" id="Facebook"  >
<path style="stroke: none; stroke-width: 1; stroke-dasharray: none; stroke-linecap: butt; stroke-dashoffset: 0; stroke-linejoin: miter; stroke-miterlimit: 4; fill: rgb(0,0,0); fill-rule: evenodd; opacity: 1;"  transform=" translate(-30, -30)" d="M 30 60 C 46.5685433 60 60 46.5685433 60 30 C 60 13.4314567 46.5685433 0 30 0 C 13.4314567 0 0 13.4314567 0 30 C 0 46.5685433 13.4314567 60 30 60 Z" stroke-linecap="round" />
</g>
<g transform="matrix(3.33 0 0 3.33 200.05 200.07)" id="facebook"  >
<path style="stroke: none; stroke-width: 1; stroke-dasharray: none; stroke-linecap: butt; stroke-dashoffset: 0; stroke-linejoin: miter; stroke-miterlimit: 4; fill: rgb(255,255,255); fill-rule: evenodd; opacity: 1;"  transform=" translate(-30.01, -30.02)" d="M 25.4622239 47.314313 L 25.4622239 29.9989613 L 21.9432889 29.9989612 L 21.9432889 24.2593563 L 25.4622239 24.2593563 L 25.4622239 20.7883864 C 25.4622239 16.1066422 26.8619948 12.730619 31.9881023 12.730619 L 38.0863595 12.730619 L 38.0863595 18.45844 L 33.7922546 18.45844 C 31.6418944 18.45844 31.1518737 19.8873763 31.1518737 21.3837609 L 31.1518737 24.2593553 L 37.7694231 24.2593558 L 36.8661728 29.9989613 L 31.1518737 29.9989613 L 31.1518737 47.3143123 L 25.4622239 47.314313 Z" stroke-linecap="round" />
</g>
</svg>