<?xml version="1.0" encoding="UTF-8" standalone="no" ?>
<!DOCTYPE svg PUBLIC "-//W3C//DTD SVG 1.1//EN" "http://www.w3.org/Graphics/SVG/1.1/DTD/svg11.dtd">
<svg xmlns="http://www.w3.org/2000/svg" xmlns:xlink="http://www.w3.org/1999/xlink" version="1.1" width="400" height="400" viewBox="0 0 400 400" xml:space="preserve">
<desc>Created with Fabric.js 3.6.2</desc>
<defs>
</defs>
<g transform="matrix(7.69 0 0 7.69 200 200)" id="dribbble_portfolio_network_media"  >
<path style="stroke: none; stroke-width: 1; stroke-dasharray: none; stroke-linecap: butt; stroke-dashoffset: 0; stroke-linejoin: miter; stroke-miterlimit: 4; fill: rgb(0,0,0); fill-rule: nonzero; opacity: 1;"  transform=" translate(-16, -16)" d="M 16 3 A 13 13 0 1 0 29 16 A 13 13 0 0 0 16 3 Z m 8.55 6.09 A 11 11 0 0 1 27 15.82 a 18.76 18.76 0 0 0 -7.81 -0.45 c -0.27 -0.65 -0.56 -1.29 -0.85 -1.92 A 18.74 18.74 0 0 0 24.55 9.09 Z M 16 5 a 11 11 0 0 1 7.16 2.66 a 16.54 16.54 0 0 1 -5.72 4 a 40.39 40.39 0 0 0 -3 -4.78 l -0.27 -0.36 a 1 1 0 0 0 -1.4 -0.19 a 1 1 0 0 0 -0.2 1.4 l 0.26 0.33 a 36.45 36.45 0 0 1 2.68 4.29 A 34 34 0 0 1 5.29 13.54 A 11 11 0 0 1 16 5 Z M 5 16 c 0 -0.16 0 -0.31 0 -0.46 H 6.14 a 33.14 33.14 0 0 0 10.31 -1.39 c 0.27 0.56 0.52 1.11 0.76 1.69 a 17 17 0 0 0 -7.81 5.3 a 1 1 0 0 0 0.75 1.66 a 1 1 0 0 0 0.76 -0.34 A 14.88 14.88 0 0 1 18 17.74 A 46.18 46.18 0 0 1 19.77 24 c 0.14 0.71 0.27 1.43 0.38 2.14 A 10.82 10.82 0 0 1 16 27 A 11 11 0 0 1 5 16 Z m 17 9.2 c -0.09 -0.52 -0.18 -1.05 -0.28 -1.57 a 48.35 48.35 0 0 0 -1.8 -6.32 a 17.1 17.1 0 0 1 6.9 0.54 A 11 11 0 0 1 22 25.2 Z" stroke-linecap="round" />
</g>
</svg>