<?xml version="1.0" encoding="UTF-8" standalone="no" ?>
<!DOCTYPE svg PUBLIC "-//W3C//DTD SVG 1.1//EN" "http://www.w3.org/Graphics/SVG/1.1/DTD/svg11.dtd">
<svg xmlns="http://www.w3.org/2000/svg" xmlns:xlink="http://www.w3.org/1999/xlink" version="1.1" width="400" height="400" viewBox="0 0 400 400" xml:space="preserve">
<desc>Created with Fabric.js 3.6.2</desc>
<defs>
</defs>
<g transform="matrix(0.39 0 0 0.39 200 200)" id="Layer_1"  >
<path style="stroke: none; stroke-width: 1; stroke-dasharray: none; stroke-linecap: butt; stroke-dashoffset: 0; stroke-linejoin: miter; stroke-miterlimit: 4; fill: rgb(0,0,0); fill-rule: nonzero; opacity: 1;"  transform=" translate(-256, -256)" d="M 437.018 74.963 C 390.661 28.765 326.734 0 256.003 0 C 185.266 0 121.34 28.765 74.993 74.963 C 28.631 121.305 0 185.355 0 256.073 c 0 70.566 28.631 134.625 74.993 180.959 C 121.34 483.232 185.266 512 256.003 512 c 70.731 0 134.658 -28.768 181.015 -74.968 C 483.369 390.698 512 326.64 512 256.073 C 512 185.355 483.369 121.305 437.018 74.963 z" stroke-linecap="round" />
</g>
<g transform="matrix(0.39 0 0 0.39 200 200)" id="Layer_1"  >
<path style="stroke: none; stroke-width: 1; stroke-dasharray: none; stroke-linecap: butt; stroke-dashoffset: 0; stroke-linejoin: miter; stroke-miterlimit: 4; fill: rgb(255,255,255); fill-rule: evenodd; opacity: 1;"  transform=" translate(-256, -256)" d="M 386.692 176.285 c -9.501 4.114 -19.841 6.948 -30.756 8.361 c 11.192 -6.657 19.694 -16.863 23.673 -29.333 c -10.35 6.092 -21.972 10.486 -34.159 12.894 c -9.653 -10.339 -23.673 -16.719 -39.269 -16.719 c -29.484 0 -53.587 23.667 -53.587 52.714 c 0 4.252 0.718 8.222 1.565 12.05 c -44.65 -2.127 -84.202 -23.102 -110.571 -55.129 c -4.533 7.937 -7.365 16.866 -7.365 26.501 c 0 18.423 9.638 34.577 23.81 43.932 c -8.785 -0.141 -17.01 -2.554 -24.234 -6.521 c 0 0.285 0 0.427 0 0.709 c 0 6.801 1.277 13.04 3.681 18.988 c 6.528 16.585 21.411 29.052 39.415 32.596 c -4.686 1.276 -9.219 1.98 -14.177 1.98 c -3.402 0 -6.806 -0.424 -10.072 -1.131 c 6.952 20.975 26.652 36.275 50.048 36.846 c -18.433 14.17 -41.395 22.531 -66.486 22.531 c -4.397 0 -8.502 -0.287 -12.894 -0.709 c 23.81 14.882 52.016 23.667 82.212 23.667 c 83.772 0 135.512 -57.964 148.972 -118.191 c 2.418 -10.766 3.544 -21.396 3.544 -31.881 c 0 -2.269 0 -4.674 0 -6.804 C 370.391 196.126 379.609 186.771 386.692 176.285 L 386.692 176.285 z" stroke-linecap="round" />
</g>
</svg>